<svg width="480" height="917" viewBox="0 0 480 917" fill="none" xmlns="http://www.w3.org/2000/svg">
<g clip-path="url(#clip0_362_901)">
<rect width="480" height="917" fill="white"/>
<path d="M-250.673 625.229L115.8 194.907L559.159 578.892L192.686 1009.21L-250.673 625.229Z" fill="#60B7FF"/>
<path d="M-250.673 625.229L115.8 194.907L559.159 578.892L192.686 1009.21L-250.673 625.229Z" fill="url(#paint0_linear_362_901)" fill-opacity="0.2"/>
<path fill-rule="evenodd" clip-rule="evenodd" d="M-756 905.949L-709.768 915.616C-663.536 925.284 -571.072 944.619 -487.459 925.198C-403.847 905.776 -329.087 847.599 -243.999 834.637C-158.911 821.675 -63.4965 853.929 20.1158 834.508C103.728 815.087 175.538 743.99 253.249 698.731C330.96 653.473 414.572 634.051 456.378 624.341L498.184 614.63L569 924.682L527.194 934.392C485.388 944.103 401.775 963.524 318.163 982.945C234.551 1002.37 150.939 1021.79 67.3263 1041.21C-16.286 1060.63 -99.8983 1080.05 -183.511 1099.47C-267.123 1118.89 -350.735 1138.32 -434.347 1157.74C-517.96 1177.16 -601.572 1196.58 -643.378 1206.29L-685.184 1216L-756 905.949Z" fill="#F0F0D8"/>
<path d="M-42.1138 -26H486.429V535.735H-42.1138V-26Z" fill="#BBE3F5"/>
<path d="M-42.1138 -26H486.429V535.735H-42.1138V-26Z" fill="url(#paint1_linear_362_901)" fill-opacity="0.2"/>
<path d="M116.619 888.457C117.35 886.754 119.776 886.754 120.507 888.457L123.473 895.369C123.806 896.144 124.571 896.646 125.418 896.646H133.492C135.676 896.646 136.426 899.54 134.515 900.592L129.067 903.588C128.118 904.111 127.719 905.263 128.145 906.256L130.439 911.6C131.229 913.441 129.232 915.236 127.471 914.267L119.586 909.929C118.949 909.579 118.177 909.579 117.54 909.929L109.655 914.267C107.894 915.236 105.898 913.441 106.688 911.6L108.981 906.256C109.407 905.263 109.009 904.111 108.059 903.588L102.612 900.592C100.7 899.54 101.451 896.646 103.635 896.646H111.708C112.555 896.646 113.32 896.144 113.653 895.369L116.619 888.457Z" fill="#FAC3C3"/>
</g>
<defs>
<linearGradient id="paint0_linear_362_901" x1="176.754" y1="-25.9998" x2="-274.383" y2="1247.66" gradientUnits="userSpaceOnUse">
<stop offset="0.205" stop-color="#082750" stop-opacity="0"/>
<stop offset="0.725" stop-color="white"/>
</linearGradient>
<linearGradient id="paint1_linear_362_901" x1="-93.5" y1="-26" x2="-93.5" y2="1216" gradientUnits="userSpaceOnUse">
<stop stop-color="#FFDDDD" stop-opacity="0"/>
<stop offset="1" stop-color="#FFD13B"/>
</linearGradient>
<clipPath id="clip0_362_901">
<rect width="480" height="917" fill="white"/>
</clipPath>
</defs>
</svg>
