<svg width="1440" height="1024" viewBox="0 0 1440 1024" fill="none" xmlns="http://www.w3.org/2000/svg">
<g clip-path="url(#clip0_362_900)">
<rect width="1440" height="1024" fill="white"/>
<path d="M-271.924 827.385L631.628 -180.189L1729.17 722.532L825.621 1730.11L-271.924 827.385Z" fill="#60B7FF"/>
<path d="M-271.924 827.385L631.628 -180.189L1729.17 722.532L825.621 1730.11L-271.924 827.385Z" fill="url(#paint0_linear_362_900)" fill-opacity="0.2"/>
<path d="M-6.10352e-05 0H1440V587H-6.10352e-05V0Z" fill="#BBE3F5"/>
<path d="M-6.10352e-05 0H1440V587H-6.10352e-05V0Z" fill="url(#paint1_linear_362_900)" fill-opacity="0.2"/>
<path d="M1906.07 1096.38C1874.57 1240.96 1609.05 1305.89 1313.01 1241.39C1016.98 1176.88 802.539 1007.38 834.042 862.798C865.546 718.211 1131.07 653.289 1427.1 717.79C1723.13 782.292 1937.57 951.791 1906.07 1096.38Z" fill="#F0F0D8"/>
<path fill-rule="evenodd" clip-rule="evenodd" d="M-200 1000.94L-156.265 1010.13C-112.529 1019.32 -25.0581 1037.7 54.0389 1019.23C133.136 1000.77 203.859 945.466 284.352 933.144C364.844 920.823 455.107 951.484 534.204 933.022C613.301 914.559 681.232 846.973 754.747 803.949C828.261 760.925 907.358 742.462 946.907 733.231L986.455 724L1053.45 1018.74L1013.9 1027.97C974.35 1037.21 895.253 1055.67 816.156 1074.13C737.059 1092.59 657.962 1111.05 578.865 1129.52C499.768 1147.98 420.671 1166.44 341.574 1184.9C262.477 1203.37 183.38 1221.83 104.283 1240.29C25.1856 1258.75 -53.9115 1277.22 -93.46 1286.45L-133.009 1295.68L-200 1000.94Z" fill="#F0F0D8"/>
<path d="M944 738.295L1053.33 714L1121.63 1021.36L1012.3 1045.65L944 738.295Z" fill="#F0F0D8"/>
</g>
<defs>
<linearGradient id="paint0_linear_362_900" x1="1263.47" y1="-180.189" x2="605.808" y2="1806.91" gradientUnits="userSpaceOnUse">
<stop offset="0.205" stop-color="#082750" stop-opacity="0"/>
<stop offset="0.725" stop-color="white"/>
</linearGradient>
<linearGradient id="paint1_linear_362_900" x1="818.608" y1="-180.189" x2="818.608" y2="1730.11" gradientUnits="userSpaceOnUse">
<stop stop-color="#FFDDDD" stop-opacity="0"/>
<stop offset="1" stop-color="#FFD13B"/>
</linearGradient>
<clipPath id="clip0_362_900">
<rect width="1440" height="1024" fill="white"/>
</clipPath>
</defs>
</svg>
